<svg width="1440" height="1024" viewBox="0 0 1440 1024" fill="none" xmlns="http://www.w3.org/2000/svg">
<g clip-path="url(#clip0_0_3)">
<rect width="1440" height="1024" fill="white"/>
<circle cx="203.5" cy="252.5" r="4.5" fill="white"/>
<path opacity="0.2" d="M158.5 273H184.5C203.002 273 218 287.998 218 306.5C218 325.002 203.002 340 184.5 340H91.5L158.5 273Z" fill="url(#paint0_linear_0_3)"/>
<g clip-path="url(#clip1_0_3)">
<path fill-rule="evenodd" clip-rule="evenodd" d="M712.956 555.512C698.101 577.527 676.259 593.884 650.964 601.937C625.67 609.99 598.4 609.269 573.566 599.889C575.736 592.443 578.582 584.2 585.504 580.796C590.726 578.262 596.936 579.191 602.616 577.948C608.296 576.705 614.096 571.129 611.708 565.879C601.723 565.589 591.956 562.889 583.237 558.01C582.308 552.579 587.735 547.824 593.162 546.992C598.588 546.159 604.015 548.078 609.441 549.224C614.868 550.371 621.018 550.516 625.203 546.992C628.35 544.361 629.701 540.269 631.232 536.552C632.916 532.53 634.958 528.669 637.334 525.014C640.228 520.512 643.689 516.276 648.344 513.633C652.999 510.99 658.944 510.326 663.586 512.909C669.013 515.854 671.449 522.274 672.583 528.273C673.716 534.271 674.03 540.679 676.876 546.11C680.65 553.352 688.549 557.805 696.616 558.578C701.85 559.024 707.686 556.236 712.956 555.512Z" fill="#C4D1D6"/>
<path d="M538.872 750.232C533.711 753.104 530.008 758.04 531.383 762.819C533.108 768.854 541.633 772.125 549.363 773.971C566.107 777.91 583.358 779.234 600.506 777.893C616.182 776.687 631.329 773.271 646.776 771.099C665.02 768.545 683.461 767.696 701.862 768.564C712.124 769.059 722.869 770.23 731.153 774.9C734.94 777.049 738.232 780.174 738.292 783.747C738.389 790.071 729.308 793.655 722.037 796.648C714.765 799.642 707.252 806.183 711.859 811.469C713.42 812.997 715.303 814.156 717.37 814.86C729.863 819.966 744.31 821.281 758.371 822.162C777.508 823.369 796.706 823.924 815.904 824.298C849.814 824.974 884.195 825.022 916.971 818.59C934.073 815.277 950.756 810.08 966.715 803.093C989.41 793.076 1011.09 776.928 1010.79 756.869C1010.83 752.671 1009.57 748.564 1007.17 745.114C1003.56 740.057 997.043 736.521 990.435 733.673C971.599 725.587 950.182 721.785 928.934 719.058C891.961 714.315 853.83 712.528 817.291 718.502C784.093 723.921 752.57 735.664 718.612 736.908C697.364 737.692 676.236 734.289 655.374 730.958C644.907 729.28 634.307 727.602 623.659 727.989C607.247 728.568 592.86 733.89 578.534 739.345C566.065 744.101 550.183 743.92 538.872 750.232Z" fill="#F2F2F2"/>
<path fill-rule="evenodd" clip-rule="evenodd" d="M1042.8 606.901C1040.94 598.917 1038.06 591.208 1034.21 583.971C1032.57 580.893 1030.74 577.828 1028.89 574.967C1025.86 570.051 1022.52 565.335 1018.88 560.847C1014.79 555.935 1010.71 551.191 1006.41 546.738C1002.53 542.442 998.442 538.29 994.354 534.259C993.148 533.052 992.099 531.845 990.869 530.771H990.664C974.927 514.816 959.395 498.656 949.579 478.875C939.57 458.358 936.507 434.896 937.11 412.182C937.52 397.458 939.16 381.081 930.164 369.217C921.988 358.355 907.252 354.903 893.782 353.262C885.401 352.236 876.61 351.838 868.639 354.288C857.785 357.353 849.428 365.331 841.252 372.91C828.578 384.979 815.928 396.842 803.23 408.706C792.184 419.134 780.535 429.984 765.847 433.87C744.141 439.59 721.892 429.163 702.272 418.518C682.652 407.656 661.187 396.227 639.107 399.703C623.78 401.96 610.695 411.361 598.841 421.596C581.235 436.694 564.473 459.818 572.914 481.494C578.643 478.428 571.492 486.816 562.7 499.5C559.227 504.618 555.537 510.133 552.269 516.071C551.876 516.55 551.596 517.111 551.449 517.712C549.857 520.563 548.423 523.501 547.156 526.511C540.386 543.376 537.589 561.576 538.98 579.698C539.652 588.614 541.158 597.447 543.478 606.081C546.174 617.009 550.591 627.438 556.562 636.977C560.464 642.955 565.139 648.389 570.467 653.137C582.031 663.558 596.129 670.754 611.347 674.004C622.493 676.522 634.027 676.8 645.281 674.825C658.968 672.568 672.052 666.848 685.956 665.001C697.276 663.542 708.779 664.58 719.655 668.043C730.532 671.506 740.519 677.31 748.916 685.047C749.296 685.269 749.642 685.546 749.941 685.868C754.029 689.754 757.707 694.051 761.385 698.142C761.879 698.736 762.423 699.286 763.013 699.784C765.249 702.252 767.642 704.574 770.176 706.735C782.645 717.368 798.793 722.69 814.795 726.166C832.377 730.052 850.357 731.694 868.349 732.72C871.412 732.925 874.282 732.925 877.345 733.13C881.433 733.335 885.726 733.335 889.814 733.54C891.647 733.54 893.492 733.745 895.132 733.745C929.464 734.349 965.244 732.539 993.45 713.482C996.837 711.262 1000.06 708.801 1003.1 706.12C1011.05 698.984 1018 690.794 1023.74 681.777C1027.88 675.602 1031.51 669.104 1034.6 662.346C1040.12 650.277 1044.24 637.593 1044.62 624.498C1044.73 618.58 1044.12 612.671 1042.8 606.901ZM631.582 614.263C629.79 615.488 627.874 616.52 625.866 617.341C620.548 619.176 614.615 619.586 609.104 621.227C608.489 621.432 607.669 621.831 606.692 622.241C599.746 625.729 586.047 635.131 584.612 626.948C584.009 623.677 588.7 618.355 593.403 613.853C596.888 610.172 600.566 607.107 602.194 605.405L605.257 602.339C606.669 601.071 608.172 599.91 609.755 598.864C615.688 594.772 622.839 592.527 629.387 594.772C631.199 595.351 632.82 596.41 634.078 597.838C634.488 598.248 634.693 598.453 634.693 598.864C635.542 599.71 636.187 600.739 636.578 601.873C636.968 603.007 637.095 604.215 636.948 605.405C636.635 608.929 634.416 612.019 631.521 614.263H631.582ZM881.313 448.413C879.878 458.852 876.815 470.511 867.409 475.218C859.232 479.309 849.633 476.654 840.879 473.782C834.946 471.947 828.82 470.101 822.887 468.254C817.773 466.625 811.852 464.163 811.032 458.852C810.622 455.377 812.865 451.889 815.736 449.644C818.593 447.592 822.066 446.373 825.13 444.732C834.536 440.23 842.712 420.184 850.453 418.748C858.412 417.034 871.497 436.344 878.008 440.99C879.32 441.767 880.382 442.902 881.071 444.261C881.577 445.587 881.661 447.037 881.313 448.413Z" fill="#F2F2F2"/>
<path d="M697.123 719.359C689.802 719.378 682.508 718.465 675.416 716.644C668.162 714.835 661.242 711.881 654.916 707.894C648.048 703.27 641.914 697.64 636.719 691.191C623.857 675.622 614.728 657.312 610.032 637.665C601.253 601.688 610.659 569.681 619.679 538.7C625.709 518.183 639.058 501.287 651.974 485.006C660.946 473.673 670.219 461.954 676.912 449.161C680.216 442.849 683.134 435.97 685.956 429.32C693.77 410.915 701.838 391.906 719.082 382.167C734.952 373.2 754.053 374.696 772.347 377.013C781.91 378.22 791.219 379.572 799.986 382.71C808.753 385.848 816.869 390.736 824.671 395.467C829.254 398.242 834.005 401.115 838.829 403.601C860.993 414.994 886.546 419.037 910.833 422.211C939.365 425.953 971.647 430.177 992.123 451.334C1013.75 473.685 1015.04 512.595 994.849 536.299C982.79 550.528 963.29 560.243 938.545 564.395C926.076 566.483 913.221 567.171 900.836 567.847C892.323 568.293 883.544 568.764 874.945 569.693C865.117 570.743 853.758 572.553 843.942 577.984C824.816 588.545 815.675 609.774 806.836 630.291C804.328 636.12 801.735 642.155 798.961 647.803C786.902 672.399 769.598 691.987 748.977 704.442C733.357 714.015 715.437 719.17 697.123 719.359ZM749.7 376.482C739.136 376.482 728.886 378.1 719.782 383.241C702.899 392.775 694.916 411.603 687.222 429.815C684.388 436.489 681.458 443.392 678.13 449.74C671.377 462.642 662.079 474.397 653.071 485.778C640.228 502.023 626.939 518.811 620.994 539.074C611.95 569.874 602.592 601.724 611.347 637.375C616.005 656.84 625.051 674.979 637.792 690.406C642.903 696.765 648.945 702.315 655.712 706.868C661.918 710.787 668.708 713.692 675.826 715.473C699.305 721.508 725.823 717.163 748.555 703.404C768.971 691.07 786.094 671.663 798.069 647.284C800.843 641.66 803.423 635.637 805.932 629.832C814.855 609.11 824.02 587.688 843.556 576.934C853.565 571.395 865.081 569.56 875.018 568.486C883.652 567.557 892.455 567.086 900.969 566.628C913.354 565.964 926.148 565.276 938.557 563.2C963.001 559.097 982.223 549.514 994.137 535.514C1013.9 512.269 1012.67 474.095 991.448 452.166C971.273 431.323 939.22 427.123 910.942 423.43C886.498 420.232 860.812 416.189 838.479 404.675C833.655 402.177 828.832 399.292 824.249 396.505C816.471 391.81 808.44 386.946 799.781 383.844C791.123 380.743 781.898 379.415 772.407 378.22C764.862 377.161 757.258 376.581 749.64 376.482H749.7Z" fill="#A6D7FF"/>
<path fill-rule="evenodd" clip-rule="evenodd" d="M733.059 489.23V489.568C733.056 494.003 732.811 498.435 732.323 502.844C730.26 521.721 723.606 539.804 712.944 555.512C698.096 577.535 676.254 593.898 650.956 601.949C625.658 610.001 598.385 609.271 573.554 599.877C552.325 591.807 533.873 577.78 520.41 559.477C506.948 541.174 499.046 519.373 497.654 496.688C497.509 494.275 497.461 491.933 497.461 489.556C497.45 474.072 500.488 458.738 506.402 444.43C512.316 430.123 520.99 417.122 531.927 406.171C542.864 395.22 555.851 386.534 570.145 380.61C584.438 374.685 599.759 371.638 615.23 371.643C622.419 371.633 629.594 372.3 636.659 373.634C653.81 376.822 670.043 383.774 684.188 393.991C698.334 404.208 710.041 417.436 718.467 432.723C724.26 443.194 728.397 454.5 730.731 466.239C732.29 473.803 733.07 481.507 733.059 489.23Z" fill="url(#paint1_linear_0_3)"/>
<path opacity="0.5" fill-rule="evenodd" clip-rule="evenodd" d="M733.059 489.025V489.363C733.056 493.798 732.811 498.23 732.323 502.638C730.26 521.515 723.606 539.599 712.944 555.307C699.169 575.729 679.348 591.32 656.265 599.89C633.183 608.461 607.998 609.58 584.247 603.092C560.496 596.604 539.372 582.834 523.841 563.715C508.31 544.596 499.152 521.09 497.654 496.495C505.649 499.995 513.017 505.04 520.482 509.687C548.109 527.102 579.173 540.438 611.793 541.947C644.413 543.455 678.672 531.857 699.317 506.488C700.294 505.281 701.162 504.075 702.031 502.868C706.809 496.269 710.674 489.055 713.523 481.421C715.848 475.357 717.538 469.068 718.564 462.654C719.135 459.394 719.537 456.107 719.77 452.806C720.324 445.988 719.885 439.125 718.467 432.434C724.26 442.904 728.397 454.21 730.731 465.949C732.296 473.541 733.076 481.273 733.059 489.025Z" fill="url(#paint2_linear_0_3)"/>
<path fill-rule="evenodd" clip-rule="evenodd" d="M730.731 466.19C726.541 465.671 722.444 464.561 718.564 462.896C713.861 461.042 709.695 458.043 706.444 454.17C703.635 450.766 701.621 446.699 698.063 444.128C694.506 441.558 688.513 441.715 686.764 445.77C686.04 447.471 686.282 449.39 686.282 451.297C686.327 456.15 684.795 460.885 681.916 464.79C676.104 465.804 671.353 458.575 665.492 459.359C660.668 459.987 658.256 465.611 653.807 467.699C648.983 469.98 643.388 467.409 638.685 464.935C637.428 464.349 636.319 463.487 635.441 462.413C634.93 461.382 634.759 460.216 634.952 459.082C635.145 457.948 635.692 456.904 636.514 456.101C638.199 454.536 640.196 453.347 642.375 452.613C649.61 449.704 656.665 446.699 663.84 443.73C669.073 441.509 675.38 437.478 674.018 431.951C672.956 427.341 665.685 426.073 663.164 430.056C662.489 431.178 662.103 432.47 661.03 433.206C660.11 433.749 659.043 433.99 657.979 433.894C651.901 433.853 645.879 432.733 640.192 430.587C635.585 428.849 630.448 424.625 632.293 420.063L645.715 418.023C646.394 418.018 647.066 417.873 647.688 417.599C648.31 417.326 648.869 416.928 649.333 416.43C649.774 415.564 649.926 414.578 649.767 413.618C648.79 405.858 639.975 401.779 632.173 400.91C624.37 400.041 615.977 400.668 609.393 396.396C608.795 396.045 608.319 395.518 608.03 394.887C607.905 394.49 607.862 394.071 607.903 393.656C607.945 393.241 608.07 392.839 608.272 392.474C610.358 387.815 615.013 384.858 619.474 382.481C624.515 379.813 630.617 376.325 636.731 373.658C653.867 376.853 670.084 383.806 684.216 394.019C698.349 404.231 710.046 417.449 718.467 432.723C724.256 443.179 728.393 454.468 730.731 466.19Z" fill="url(#paint3_linear_0_3)"/>
<path fill-rule="evenodd" clip-rule="evenodd" d="M581.935 463.089C583.201 468.363 582.176 474.494 578.124 478.09C574.76 481.095 570.02 481.844 565.739 483.28C556.647 486.333 548.133 495.047 550.135 504.437C550.75 507.297 552.281 509.952 552.426 512.885C552.691 518.219 548.121 522.769 543.092 524.531C541.564 525.149 539.9 525.349 538.269 525.111C536.77 524.717 535.389 523.967 534.241 522.926C530.954 520.178 528.388 516.668 526.765 512.701C525.143 508.734 524.513 504.43 524.932 500.164C525.204 498.603 525.309 497.017 525.245 495.433C524.666 490.292 519.396 487.287 515.923 483.449C512.802 479.76 511.102 475.076 511.128 470.243C511.155 465.409 512.907 460.745 516.068 457.09C518.998 453.904 522.918 451.768 525.908 448.642C528.899 445.516 530.925 441.328 533.662 437.78C542.972 425.808 549.339 435.97 559.264 439.409C569.996 443.175 579.089 451.309 581.935 463.089Z" fill="url(#paint4_linear_0_3)"/>
<path fill-rule="evenodd" clip-rule="evenodd" d="M733.059 489.23V489.568C733.056 494.003 732.811 498.435 732.323 502.844C727.668 506.235 720.204 507.538 718.178 513.126C716.863 516.747 718.178 521.321 715.465 523.892C712.992 526.124 709.158 525.099 706.058 523.892C705.482 523.72 704.951 523.424 704.503 523.023C703.152 521.707 704.021 519.523 704.648 517.785C705.465 515.318 705.654 512.685 705.197 510.127C704.74 507.568 703.652 505.164 702.031 503.133C700.97 501.721 699.619 500.563 698.883 498.957C697.967 496.676 698.449 494.13 699.076 491.716C700.632 485.271 706.589 481.578 713.185 481.626H713.523C717.202 481.827 720.822 482.643 724.231 484.04C727.444 485.046 730.401 486.734 732.902 488.988L733.059 489.23Z" fill="url(#paint5_linear_0_3)"/>
<path fill-rule="evenodd" clip-rule="evenodd" d="M570.997 508.637C570.893 509.361 570.955 510.1 571.178 510.797C571.586 511.622 572.217 512.316 572.999 512.8C578.401 516.626 585.323 517.507 591.944 517.628C593.046 517.737 594.158 517.549 595.163 517.085C596.9 516.071 597.274 513.766 597.467 511.762C597.633 511.007 597.517 510.217 597.141 509.542C596.778 509.135 596.311 508.835 595.791 508.673C593.13 507.596 590.334 506.889 587.482 506.573C586.439 506.499 585.403 506.345 584.383 506.114C581.115 505.221 578.112 498.318 575.941 498.197C572.914 498.016 571.178 506.512 570.997 508.637Z" fill="#C4D1D6"/>
<path fill-rule="evenodd" clip-rule="evenodd" d="M586.445 391.279C584.269 394.139 581.126 396.108 577.605 396.818C571.757 398.025 565.667 396.094 559.879 397.337C553.777 398.629 548.459 403.372 542.248 402.973C540.386 402.824 538.567 402.333 536.882 401.525C550.806 389.082 567.495 380.145 585.564 375.456C586.797 377.202 587.772 379.117 588.459 381.141C588.894 382.874 588.939 384.683 588.591 386.437C588.243 388.19 587.51 389.844 586.445 391.279Z" fill="url(#paint6_linear_0_3)"/>
<path fill-rule="evenodd" clip-rule="evenodd" d="M551.208 588.557C535.335 578.257 522.18 564.276 512.86 547.8C515.441 547.909 518.13 548.162 519.626 547.8C524.329 546.448 529.393 544.59 533.891 546.509C538.848 548.621 540.813 554.414 544.13 558.71C546.936 562.281 550.811 564.857 555.188 566.06C556.238 566.215 557.233 566.63 558.082 567.267C558.906 568.185 559.338 569.389 559.288 570.622C559.468 574.04 558.828 577.451 557.423 580.571C556.017 583.691 553.886 586.429 551.208 588.557Z" fill="#C4D1D6"/>
<path d="M573.566 393.174C577.016 393.174 579.812 390.375 579.812 386.922C579.812 383.469 577.016 380.67 573.566 380.67C570.116 380.67 567.319 383.469 567.319 386.922C567.319 390.375 570.116 393.174 573.566 393.174Z" fill="white"/>
<path d="M573.566 390.277C575.417 390.277 576.918 388.775 576.918 386.922C576.918 385.069 575.417 383.567 573.566 383.567C571.714 383.567 570.213 385.069 570.213 386.922C570.213 388.775 571.714 390.277 573.566 390.277Z" fill="#F97068"/>
<path d="M642.29 395.479C645.74 395.479 648.537 392.68 648.537 389.227C648.537 385.774 645.74 382.975 642.29 382.975C638.84 382.975 636.044 385.774 636.044 389.227C636.044 392.68 638.84 395.479 642.29 395.479Z" fill="white"/>
<path d="M642.29 392.582C644.142 392.582 645.643 391.08 645.643 389.227C645.643 387.374 644.142 385.872 642.29 385.872C640.439 385.872 638.938 387.374 638.938 389.227C638.938 391.08 640.439 392.582 642.29 392.582Z" fill="#F97068"/>
<path fill-rule="evenodd" clip-rule="evenodd" d="M699.764 424.83C699.764 426.069 699.397 427.28 698.709 428.31C698.021 429.34 697.044 430.143 695.9 430.617C694.756 431.091 693.498 431.215 692.284 430.974C691.07 430.732 689.955 430.135 689.079 429.259C688.204 428.383 687.608 427.267 687.367 426.052C687.125 424.837 687.249 423.578 687.723 422.433C688.196 421.289 688.999 420.31 690.028 419.622C691.057 418.934 692.267 418.567 693.505 418.567C694.327 418.565 695.142 418.726 695.902 419.04C696.662 419.354 697.353 419.816 697.934 420.398C698.516 420.98 698.977 421.671 699.29 422.431C699.604 423.192 699.765 424.007 699.764 424.83Z" fill="white"/>
<path d="M693.505 428.185C695.356 428.185 696.857 426.683 696.857 424.83C696.857 422.977 695.356 421.475 693.505 421.475C691.654 421.475 690.153 422.977 690.153 424.83C690.153 426.683 691.654 428.185 693.505 428.185Z" fill="#F97068"/>
<path fill-rule="evenodd" clip-rule="evenodd" d="M723.448 495.373C723.45 496.612 723.085 497.824 722.399 498.856C721.712 499.888 720.736 500.692 719.592 501.168C718.449 501.644 717.19 501.77 715.975 501.53C714.761 501.289 713.644 500.694 712.768 499.818C711.891 498.943 711.294 497.827 711.051 496.611C710.809 495.396 710.932 494.136 711.406 492.991C711.879 491.845 712.681 490.866 713.711 490.178C714.74 489.489 715.951 489.121 717.189 489.121C718.847 489.121 720.437 489.779 721.61 490.952C722.784 492.124 723.444 493.714 723.448 495.373Z" fill="white"/>
<path d="M717.189 498.728C719.04 498.728 720.541 497.226 720.541 495.373C720.541 493.52 719.04 492.018 717.189 492.018C715.337 492.018 713.837 493.52 713.837 495.373C713.837 497.226 715.337 498.728 717.189 498.728Z" fill="#F97068"/>
<path fill-rule="evenodd" clip-rule="evenodd" d="M658.148 529.455C658.155 530.693 657.795 531.906 657.113 532.938C656.431 533.971 655.458 534.778 654.317 535.257C653.176 535.736 651.919 535.865 650.705 535.628C649.491 535.39 648.374 534.798 647.497 533.925C646.62 533.052 646.021 531.938 645.778 530.725C645.534 529.511 645.655 528.252 646.127 527.108C646.599 525.963 647.399 524.985 648.427 524.296C649.455 523.608 650.664 523.24 651.901 523.24C653.552 523.24 655.135 523.894 656.306 525.058C657.476 526.223 658.138 527.804 658.148 529.455Z" fill="white"/>
<path d="M651.901 532.811C653.753 532.811 655.254 531.308 655.254 529.455C655.254 527.602 653.753 526.1 651.901 526.1C650.05 526.1 648.549 527.602 648.549 529.455C648.549 531.308 650.05 532.811 651.901 532.811Z" fill="#F97068"/>
<path fill-rule="evenodd" clip-rule="evenodd" d="M635.151 565.614C635.154 566.853 634.789 568.065 634.102 569.097C633.416 570.129 632.439 570.933 631.296 571.409C630.153 571.885 628.894 572.011 627.679 571.771C626.464 571.53 625.348 570.935 624.471 570.059C623.595 569.184 622.998 568.068 622.755 566.852C622.513 565.637 622.636 564.377 623.109 563.232C623.583 562.086 624.385 561.107 625.414 560.419C626.444 559.73 627.654 559.362 628.893 559.362C629.714 559.361 630.528 559.521 631.287 559.835C632.046 560.148 632.736 560.608 633.317 561.189C633.899 561.77 634.36 562.459 634.675 563.219C634.989 563.978 635.151 564.792 635.151 565.614Z" fill="white"/>
<path d="M628.893 568.969C630.744 568.969 632.245 567.467 632.245 565.614C632.245 563.761 630.744 562.259 628.893 562.259C627.041 562.259 625.54 563.761 625.54 565.614C625.54 567.467 627.041 568.969 628.893 568.969Z" fill="#F97068"/>
<path d="M681.012 578.576C684.462 578.576 687.258 575.777 687.258 572.324C687.258 568.871 684.462 566.072 681.012 566.072C677.562 566.072 674.765 568.871 674.765 572.324C674.765 575.777 677.562 578.576 681.012 578.576Z" fill="white"/>
<path fill-rule="evenodd" clip-rule="evenodd" d="M684.364 572.324C684.364 572.988 684.168 573.636 683.799 574.188C683.431 574.74 682.907 575.17 682.295 575.424C681.682 575.678 681.008 575.744 680.358 575.615C679.708 575.485 679.11 575.166 678.641 574.697C678.172 574.227 677.853 573.63 677.724 572.979C677.594 572.328 677.661 571.653 677.915 571.04C678.168 570.427 678.598 569.903 679.149 569.534C679.701 569.166 680.349 568.969 681.012 568.969C681.901 568.969 682.754 569.322 683.382 569.952C684.011 570.581 684.364 571.434 684.364 572.324Z" fill="#F97068"/>
<path d="M549.725 452.371C553.175 452.371 555.972 449.572 555.972 446.12C555.972 442.667 553.175 439.868 549.725 439.868C546.275 439.868 543.478 442.667 543.478 446.12C543.478 449.572 546.275 452.371 549.725 452.371Z" fill="white"/>
<path d="M549.725 449.475C551.576 449.475 553.077 447.973 553.077 446.12C553.077 444.267 551.576 442.765 549.725 442.765C547.873 442.765 546.373 444.267 546.373 446.12C546.373 447.973 547.873 449.475 549.725 449.475Z" fill="#F97068"/>
<path fill-rule="evenodd" clip-rule="evenodd" d="M537.943 473.926C537.953 475.164 537.595 476.377 536.915 477.412C536.235 478.446 535.263 479.254 534.124 479.735C532.984 480.216 531.727 480.348 530.512 480.113C529.298 479.878 528.18 479.288 527.301 478.417C526.422 477.546 525.822 476.433 525.575 475.22C525.329 474.006 525.448 472.747 525.918 471.602C526.387 470.457 527.186 469.477 528.213 468.786C529.239 468.095 530.448 467.725 531.685 467.723C533.335 467.72 534.92 468.37 536.092 469.533C537.265 470.695 537.931 472.275 537.943 473.926Z" fill="white"/>
<path d="M531.685 477.282C533.536 477.282 535.037 475.779 535.037 473.926C535.037 472.073 533.536 470.571 531.685 470.571C529.833 470.571 528.332 472.073 528.332 473.926C528.332 475.779 529.833 477.282 531.685 477.282Z" fill="#F97068"/>
<path fill-rule="evenodd" clip-rule="evenodd" d="M586.071 506.344C586.073 507.583 585.708 508.796 585.021 509.828C584.334 510.86 583.357 511.665 582.213 512.14C581.069 512.616 579.809 512.741 578.594 512.5C577.379 512.258 576.263 511.661 575.387 510.785C574.511 509.908 573.914 508.791 573.673 507.575C573.432 506.358 573.557 505.098 574.032 503.953C574.508 502.808 575.312 501.83 576.343 501.142C577.374 500.455 578.585 500.089 579.824 500.092C581.48 500.095 583.067 500.755 584.238 501.926C585.409 503.098 586.068 504.686 586.071 506.344Z" fill="white"/>
<path fill-rule="evenodd" clip-rule="evenodd" d="M583.177 506.344C583.177 507.007 582.98 507.656 582.612 508.208C582.243 508.759 581.72 509.189 581.107 509.443C580.495 509.697 579.821 509.764 579.17 509.634C578.52 509.505 577.923 509.185 577.454 508.716C576.985 508.247 576.666 507.649 576.536 506.998C576.407 506.347 576.473 505.673 576.727 505.06C576.981 504.446 577.411 503.922 577.962 503.554C578.513 503.185 579.161 502.988 579.824 502.988C580.713 502.988 581.566 503.342 582.195 503.971C582.824 504.6 583.177 505.454 583.177 506.344Z" fill="#FFAF20"/>
<path fill-rule="evenodd" clip-rule="evenodd" d="M543.129 562.259C543.129 563.498 542.761 564.71 542.073 565.74C541.385 566.77 540.407 567.573 539.262 568.047C538.118 568.52 536.859 568.644 535.645 568.401C534.43 568.158 533.315 567.561 532.44 566.684C531.565 565.806 530.97 564.689 530.73 563.473C530.49 562.257 530.616 560.998 531.091 559.853C531.567 558.709 532.371 557.731 533.402 557.045C534.432 556.358 535.644 555.993 536.882 555.995C537.703 555.995 538.517 556.157 539.275 556.472C540.034 556.787 540.723 557.248 541.303 557.83C541.884 558.412 542.343 559.103 542.657 559.863C542.97 560.622 543.13 561.437 543.129 562.259Z" fill="white"/>
<path d="M536.882 565.614C538.734 565.614 540.234 564.112 540.234 562.259C540.234 560.406 538.734 558.903 536.882 558.903C535.031 558.903 533.53 560.406 533.53 562.259C533.53 564.112 535.031 565.614 536.882 565.614Z" fill="#FFAF20"/>
<path d="M804.073 482.926L929.914 515.122L875.379 728.622L749.538 696.426C748.98 696.283 748.502 695.924 748.208 695.429C747.915 694.933 747.83 694.341 747.972 693.783L801.435 484.481C801.577 483.923 801.936 483.444 802.431 483.15C802.926 482.856 803.518 482.771 804.075 482.914L804.073 482.926Z" fill="url(#paint7_linear_0_3)"/>
<path d="M812.214 499.054L816.507 489.121L910.098 510.073L929.911 515.142L921.349 548.645L807.318 518.243L812.214 499.054Z" fill="url(#paint8_linear_0_3)"/>
<path d="M929.923 515.13L921.337 548.657L893.685 657.06L875.392 728.652C873.257 736.956 830.17 734.482 796.73 728.218C774.337 724.042 756.26 718.128 757.671 712.528L761.036 699.361L807.318 518.243L812.19 499.102C816.194 509.481 930.936 528.261 929.923 515.13Z" fill="white"/>
<path d="M1055.73 556.176L1042.8 606.865L1023.65 681.765C1017.87 690.768 1010.91 698.955 1002.95 706.108C999.894 708.74 996.694 711.202 993.365 713.482C967.475 730.945 935.108 733.999 903.501 733.806C900.692 733.806 897.834 733.806 895.06 733.709L875.38 728.664L893.685 657.06L921.361 548.657L929.947 515.13L949.76 520.223L990.761 530.711L1049.55 545.748C1050.64 546.02 1051.67 546.506 1052.58 547.179C1053.48 547.852 1054.24 548.698 1054.82 549.668C1055.39 550.638 1055.77 551.713 1055.93 552.83C1056.09 553.947 1056.02 555.085 1055.73 556.176Z" fill="url(#paint9_linear_0_3)"/>
<path d="M1040.88 557.564L1043.86 545.942L949.724 520.211L929.911 515.142L921.349 548.645L1035.98 576.753L1040.88 557.564Z" fill="url(#paint10_linear_0_3)"/>
<path d="M1040.9 557.576L1034.17 583.959L1002.95 706.096C999.894 708.728 996.694 711.19 993.365 713.47C967.475 730.933 935.108 733.987 903.501 733.794C900.692 733.794 897.834 733.794 895.06 733.697L889.778 733.552C885.557 733.408 881.337 733.311 877.128 733.118C875.669 731.416 875.042 729.92 875.38 728.652L893.685 657.06L921.361 548.657L929.947 515.13C926.498 528.623 980.414 550.95 1013.81 556.767C1025.85 558.855 1039.6 562.428 1040.9 557.576Z" fill="white"/>
<path d="M839.065 540.642L812 534.044C811.34 533.883 810.674 534.288 810.513 534.949L803.921 562.036C803.76 562.697 804.165 563.363 804.825 563.523L831.89 570.122C832.55 570.282 833.215 569.877 833.376 569.217L839.969 542.13C840.129 541.469 839.725 540.803 839.065 540.642Z" fill="url(#paint11_linear_0_3)"/>
<path d="M823.442 604.862L796.377 598.264C795.717 598.103 795.052 598.508 794.891 599.169L788.298 626.256C788.137 626.916 788.542 627.582 789.202 627.743L816.267 634.341C816.927 634.502 817.593 634.097 817.753 633.437L824.346 606.35C824.507 605.689 824.102 605.023 823.442 604.862Z" fill="url(#paint12_linear_0_3)"/>
<path d="M893.175 589.564L866.11 582.966C865.45 582.805 864.784 583.21 864.624 583.87L858.031 610.958C857.87 611.618 858.275 612.284 858.935 612.445L886 619.043C886.66 619.204 887.325 618.799 887.486 618.138L894.079 591.051C894.239 590.391 893.835 589.725 893.175 589.564Z" fill="url(#paint13_linear_0_3)"/>
<path opacity="0.5" d="M817.782 646.718L786.51 639.095L784.752 646.318L816.024 653.942L817.782 646.718Z" fill="url(#paint14_linear_0_3)"/>
<path opacity="0.5" d="M883.689 681.275L782.259 656.547L780.892 662.164L882.321 686.891L883.689 681.275Z" fill="url(#paint15_linear_0_3)"/>
<path opacity="0.5" d="M869.362 632.729L820.8 620.889L821.283 618.91L867.879 630.267L883.025 568.028L821.705 553.074L822.187 551.107L885.473 566.531L869.362 632.729Z" fill="url(#paint16_linear_0_3)"/>
<path opacity="0.5" d="M955.493 585.504L927.896 579.113L926.604 584.698L954.202 591.089L955.493 585.504Z" fill="url(#paint17_linear_0_3)"/>
<path opacity="0.5" d="M952.593 598.066L924.996 591.675L923.704 597.26L951.302 603.652L952.593 598.066Z" fill="url(#paint18_linear_0_3)"/>
<path opacity="0.5" d="M1008.28 624.202L922.083 604.238L920.791 609.823L1006.99 629.787L1008.28 624.202Z" fill="url(#paint19_linear_0_3)"/>
<path opacity="0.5" d="M1005.38 636.764L919.182 616.8L917.891 622.385L1004.09 642.349L1005.38 636.764Z" fill="url(#paint20_linear_0_3)"/>
<path d="M1001.44 653.801L915.243 633.836L906.312 672.462L992.511 692.426L1001.44 653.801Z" fill="url(#paint21_linear_0_3)"/>
<path opacity="0.1" fill-rule="evenodd" clip-rule="evenodd" d="M906.697 679.761C904.96 671.084 902.633 663.951 899.823 660.656C899.043 659.946 898.117 659.414 897.11 659.099C895.904 658.375 894.831 657.687 893.661 657.06C890.358 655.157 886.777 653.785 883.049 652.993C882.376 652.246 881.774 651.438 881.252 650.579C882.053 649.66 882.969 648.849 883.978 648.165C885.57 647.236 886.98 647.284 888.283 645.751C890.514 643.229 891.732 640.996 891.285 637.605C891.044 635.662 888.524 635.468 888.476 633.477C888.476 631.727 890.224 631.293 890.888 629.639C891.418 628.239 891.961 627.322 891.575 625.862C891.403 625.032 891.029 624.258 890.486 623.607C889.943 622.957 889.249 622.45 888.464 622.132C886.052 621.01 884.014 623.774 881.831 622.325C880.42 621.3 881.638 619.26 880.42 618.053C879.993 617.582 879.455 617.224 878.855 617.014C878.255 616.803 877.611 616.745 876.983 616.846C874.704 617.051 874.125 620.153 871.798 619.767C870.918 619.562 871.171 618.258 870.339 617.872C869.836 617.515 869.245 617.304 868.63 617.261C868.015 617.219 867.401 617.346 866.854 617.631C864.141 618.934 865.648 623.4 862.73 624.075C862.006 624.22 861.861 623.062 861.138 623.062C860.474 623.048 859.818 623.217 859.244 623.552C858.67 623.886 858.198 624.372 857.882 624.956C857.207 625.874 857.592 626.791 857.544 627.913C857.276 629.165 857.325 630.464 857.689 631.691C857.93 632.222 858.81 632.27 858.666 632.898C858.521 633.525 857.255 633.284 856.869 633.96C856.609 634.375 856.447 634.845 856.397 635.332C856.347 635.82 856.409 636.312 856.58 636.772C856.728 637.776 857.265 638.682 858.075 639.294C859.016 639.935 860.096 640.345 861.225 640.489C862.355 640.634 863.502 640.51 864.575 640.127C864.987 643.206 866.206 646.121 868.108 648.575C868.475 648.989 868.933 649.313 869.445 649.522C869.957 649.732 870.511 649.82 871.062 649.782C870.712 651.015 870.104 652.158 869.278 653.137C867.67 653.48 866.097 653.965 864.575 654.586C862.891 654.984 861.297 655.692 859.872 656.674C859.1 657.108 858.268 657.446 857.46 657.88C857.435 658.125 857.435 658.372 857.46 658.617C856.833 659.192 856.264 659.826 855.76 660.511C847.432 671.647 839.935 683.382 833.33 695.62L797.153 664.482C796.284 661.767 796.284 657.736 794.15 655.853L785.154 650.12C783.646 648.768 782.055 651.387 783.646 652.739L788.772 657.205C787.856 659.684 787.623 662.364 788.096 664.965C788.445 665.873 788.99 666.692 789.693 667.364C790.396 668.036 791.238 668.544 792.16 668.851L792.269 668.754C793.619 670.348 795.03 672.001 796.429 673.703C796.64 673.972 796.866 674.23 797.104 674.475L799.818 707.797L799.878 708.473L801.904 709.837L803.604 710.947C803.217 711.274 802.877 711.652 802.591 712.07C799.521 716.975 797.535 722.481 796.767 728.218C830.206 734.482 873.293 736.956 875.428 728.652C875.09 729.92 875.717 731.416 877.176 733.118C881.397 733.311 885.618 733.408 889.826 733.552L895.108 733.697C897.87 733.697 900.728 733.794 903.55 733.794C903.791 732.297 903.984 730.789 904.177 729.292C907.794 728.556 910.098 727.301 910.483 725.358C910.972 710.064 909.702 694.764 906.697 679.761ZM859.257 691.07C861.005 702.125 861.922 709.354 852.998 717.211C847.523 715.316 842.531 713.711 837.936 712.384C845.564 705.821 852.691 698.697 859.257 691.07Z" fill="black"/>
<path d="M556.418 469.714L554.85 467.868C556.056 466.842 557.262 465.792 558.468 464.706L560.072 466.54C558.866 467.627 557.636 468.689 556.418 469.714Z" fill="#FFC358"/>
<path d="M495.387 498.209C491.999 497.929 488.696 497.003 485.655 495.482L486.753 493.321C489.524 494.677 492.528 495.496 495.604 495.735L495.387 498.209ZM505.36 497.763L504.962 495.349C508.087 494.802 511.16 493.995 514.151 492.935L514.935 495.228C511.826 496.333 508.631 497.181 505.384 497.763H505.36ZM524.027 491.523L522.978 489.338C525.739 488.011 528.585 486.478 531.419 484.788L532.625 486.876C529.755 488.602 526.849 490.171 524.027 491.523ZM477.841 489.049C475.786 486.358 474.219 483.327 473.21 480.094L475.514 479.345C476.435 482.308 477.867 485.085 479.746 487.552L477.841 489.049ZM540.91 481.602L539.547 479.611C542.08 477.873 544.708 475.99 547.337 473.926L548.808 475.858C546.143 477.909 543.49 479.792 540.91 481.602ZM471.329 470.306C471.196 468.785 471.136 467.216 471.136 465.587C471.136 463.958 471.136 462.196 471.341 460.421L473.753 460.602C473.62 462.316 473.56 463.982 473.56 465.587C473.56 467.192 473.56 468.652 473.741 470.113L471.329 470.306ZM475.043 451.116L472.631 450.658C473.222 447.604 473.982 444.382 474.911 441.111L477.238 441.775C476.358 444.985 475.61 448.123 475.043 451.116ZM480.229 432.615L477.949 431.794C479.011 428.837 480.229 425.76 481.567 422.694L483.798 423.648C482.472 426.689 481.266 429.706 480.229 432.615ZM755.416 414.982C752.131 414.612 748.881 413.978 745.697 413.087L746.336 410.746C749.394 411.6 752.515 412.209 755.669 412.568L755.416 414.982ZM487.802 414.885L485.619 413.811C487.018 410.999 488.501 408.055 490.117 405.146L492.239 406.353C490.672 409.177 489.176 412.073 487.802 414.885ZM765.425 414.885L765.027 412.472C768.032 412.079 770.869 410.864 773.227 408.96L774.807 410.794C772.11 412.981 768.865 414.384 765.425 414.849V414.885ZM736.375 409.913C733.408 408.706 730.345 407.318 727.451 405.786L728.573 403.637C731.455 405.134 734.385 406.486 737.291 407.656L736.375 409.913ZM779.787 401.755L777.376 401.308C777.614 399.998 777.731 398.669 777.725 397.337C777.713 395.573 777.556 393.813 777.255 392.075L779.667 391.665C779.991 393.539 780.161 395.436 780.173 397.337C780.193 398.818 780.072 400.297 779.812 401.755H779.787ZM718.925 400.874C716.152 399.087 713.451 397.168 710.918 395.189L712.414 393.27C714.886 395.213 717.527 397.084 720.24 398.834L718.925 400.874ZM497.039 398.001L495.001 396.698C496.725 393.994 498.619 391.291 500.572 388.636L502.514 390.084C500.633 392.691 498.788 395.31 497.099 398.001H497.039ZM703.514 388.72C701.149 386.431 698.934 383.992 696.882 381.418L698.787 379.91C700.771 382.407 702.918 384.77 705.214 386.982L703.514 388.72ZM774.843 382.915C773.758 379.91 772.523 376.961 771.141 374.081L773.324 373.031C774.748 375.987 776.016 379.017 777.122 382.106L774.843 382.915ZM508.579 382.565L506.734 380.984C508.833 378.57 511.04 376.084 513.307 373.743L515.031 375.42C512.824 377.737 510.642 380.139 508.579 382.565ZM691.383 373.175C689.767 370.252 688.501 367.149 687.608 363.931L689.948 363.291C690.793 366.327 691.987 369.255 693.505 372.017L691.383 373.175ZM521.941 368.662L520.289 366.888C522.628 364.703 525.112 362.531 527.609 360.419L529.164 362.277C526.68 364.365 524.256 366.513 521.941 368.662ZM766.74 365.536C766.137 364.45 765.534 363.351 764.834 362.229C763.833 360.539 762.808 358.91 761.747 357.317L763.773 355.977C764.846 357.594 765.895 359.272 766.908 360.986C767.584 362.132 768.235 363.255 768.85 364.353L766.74 365.536ZM536.737 356.267L535.266 354.336C537.823 352.393 540.488 350.462 543.177 348.603L544.54 350.655C541.862 352.441 539.234 354.348 536.737 356.267ZM897.11 355.398C894.924 353.069 892.609 350.865 890.176 348.796L891.744 346.962C894.251 349.081 896.634 351.341 898.883 353.732L897.11 355.398ZM688.85 354.095L686.438 353.986C686.584 350.609 687.293 347.28 688.537 344.138L690.78 345.031C689.634 347.922 688.981 350.986 688.85 354.095ZM756.031 349.581C754.017 347.095 751.883 344.681 749.652 342.424L751.388 340.722C753.656 343.039 755.862 345.55 757.912 348.06L756.031 349.581ZM552.595 345.284L551.305 343.233C554.042 341.519 556.864 339.829 559.746 338.224L560.952 340.324C558.094 341.917 555.308 343.595 552.595 345.284ZM882.579 342.87C880.071 341.072 877.369 339.25 874.548 337.56L875.814 335.496C878.672 337.246 881.421 339.117 883.99 340.891L882.579 342.87ZM695.434 336.945L693.505 335.46C693.915 334.929 694.349 334.398 694.795 333.867C696.495 331.867 698.311 329.969 700.234 328.183L701.946 329.969C700.088 331.683 698.337 333.509 696.701 335.436C696.218 335.943 695.82 336.438 695.434 336.945ZM742.622 335.931C740.172 333.872 737.621 331.938 734.976 330.138L736.339 328.122C739.052 329.981 741.693 331.972 744.165 334.048L742.622 335.931ZM569.369 335.726L568.26 333.565C571.138 332.077 574.056 330.645 577.015 329.269L578.028 331.465C575.109 332.833 572.223 334.253 569.369 335.726ZM866.179 332.829C863.429 331.357 860.523 329.908 857.556 328.521L858.569 326.324C861.584 327.724 864.538 329.196 867.324 330.681L866.179 332.829ZM586.867 327.567L585.938 325.31C588.937 324.055 591.964 322.848 595.019 321.69L595.863 323.959C592.848 325.133 589.849 326.336 586.867 327.567ZM726.812 325.153C724.038 323.633 721.144 322.209 718.202 320.929L719.167 318.709C722.181 320.012 725.136 321.472 727.982 323.029L726.812 325.153ZM848.705 324.671C845.738 323.464 842.675 322.257 839.697 321.219L840.505 318.938C843.556 320.024 846.619 321.195 849.633 322.426L848.705 324.671ZM709.339 324.103L707.976 322.052C710.682 320.203 713.501 318.526 716.417 317.031L717.515 319.203C714.683 320.653 711.952 322.29 709.339 324.103ZM604.992 320.869L604.268 318.564C607.367 317.562 610.515 316.621 613.626 315.764L614.277 318.093C611.166 318.95 608.055 319.879 604.992 320.869ZM830.496 318.141C827.421 317.188 824.297 316.295 821.21 315.474L821.825 313.133C824.949 313.953 828.108 314.859 831.219 315.824L830.496 318.141ZM709.242 317.453C706.263 316.452 703.213 315.546 700.017 314.774L700.608 312.36C703.803 313.169 706.975 314.086 710.014 315.112L709.242 317.453ZM623.623 315.728L623.08 313.314C626.264 312.59 629.483 311.926 632.643 311.347L633.077 313.76C629.954 314.352 626.77 315.003 623.623 315.728ZM726.318 315.378L725.474 313.109C728.545 311.965 731.672 310.978 734.843 310.152L735.458 312.493C732.299 313.326 729.224 314.303 726.318 315.378ZM811.865 313.241C808.693 312.541 805.509 311.926 802.386 311.383L802.796 308.969C805.956 309.512 809.175 310.176 812.371 310.84L811.865 313.241ZM690.599 312.807C687.512 312.264 684.304 311.841 681.06 311.515L681.301 309.102C684.593 309.428 687.861 309.874 691.009 310.405L690.599 312.807ZM642.604 312.3L642.29 309.886C645.534 309.464 648.802 309.114 652.01 308.872L652.203 311.286C649.043 311.552 645.811 311.89 642.604 312.3ZM671.461 310.828C668.277 310.707 665.058 310.695 661.814 310.767V308.353C665.102 308.281 668.362 308.301 671.594 308.414L671.461 310.828ZM744.84 310.417L744.418 308.003C747.542 307.46 750.81 307.014 754.066 306.688L754.307 309.102C751.111 309.476 747.903 309.922 744.84 310.453V310.417ZM792.835 309.898C789.604 309.5 786.372 309.162 783.188 308.921L783.381 306.507C786.553 306.748 789.821 307.086 793.089 307.497L792.835 309.898ZM763.966 308.522L763.882 306.109C765.763 306.109 767.801 306.024 769.549 306.012C770.912 306.012 772.287 306.012 773.661 306.012L773.601 308.426C772.178 308.426 770.743 308.426 769.344 308.426C767.548 308.414 765.751 308.414 763.966 308.522Z" fill="#0081FF"/>
<path d="M905.744 367.189C905.021 365.85 904.201 364.486 903.332 363.134L905.346 361.794C906.287 363.207 907.143 364.643 907.903 366.043L905.744 367.189Z" fill="#0081FF"/>
<path opacity="0.5" d="M911.484 371.679L932.708 355.398L946.528 421.101L911.484 371.679Z" fill="url(#paint22_linear_0_3)"/>
<path opacity="0.5" d="M946.528 421.101L883.99 377.918L911.484 371.679L946.528 421.101Z" fill="url(#paint23_linear_0_3)"/>
<path opacity="0.5" d="M904.719 373.212L946.528 421.101L917.333 367.189L904.719 373.212Z" fill="url(#paint24_linear_0_3)"/>
<path fill-rule="evenodd" clip-rule="evenodd" d="M858.847 653.584C858.461 656.348 856.821 660.041 854.252 664.253C846.197 677.408 829.579 695.403 817.991 704.804C811.213 708.932 792.835 683.37 777.665 665.037C776.218 663.287 774.807 661.586 773.408 659.992L778.232 655.672L814.53 686.954C821.151 674.715 828.664 662.981 837.008 651.846C845.184 641.262 858.943 645.244 858.847 653.584Z" fill="#FFB26C"/>
<path opacity="0.1" fill-rule="evenodd" clip-rule="evenodd" d="M854.252 664.253C846.197 677.408 829.579 695.403 817.991 704.804C811.213 708.932 792.835 683.37 777.665 665.037C778.305 665.658 778.905 666.32 779.462 667.017C782.609 670.637 787.602 671.965 791.34 675.03C796.96 679.629 799.48 688.125 806.366 690.406C809.368 691.372 812.66 690.937 815.76 690.503C819.787 689.911 823.863 689.296 827.445 687.389C834.186 683.708 837.623 676.092 842.953 670.492C845.087 668.26 849.115 664.132 852.359 663.842C853.018 663.758 853.687 663.902 854.252 664.253Z" fill="black"/>
<path fill-rule="evenodd" clip-rule="evenodd" d="M814.409 765.825C810.806 767.988 806.727 769.231 802.531 769.445C798.992 769.777 795.423 769.429 792.015 768.419C789.429 767.654 787.011 766.405 784.888 764.738C782.448 762.789 780.478 760.314 779.124 757.497C779.124 757.4 779.028 757.352 778.98 757.256L783.731 755.361L789.399 753.176L794.222 751.245L796.26 750.461L797.563 751.583L800.626 754.154L813.89 765.402L814.409 765.825Z" fill="url(#paint25_linear_0_3)"/>
<path fill-rule="evenodd" clip-rule="evenodd" d="M802.869 799.979L797.297 801.186H797.213C796.897 801.278 796.575 801.343 796.248 801.379L792.847 802.164C792.751 801.766 792.655 801.428 792.558 801.042C789.273 789.085 786.732 776.937 784.949 764.666C784.515 761.902 784.177 759.138 783.936 756.471L783.791 755.264C783.791 754.878 783.791 754.54 783.695 754.202L789.459 753.08L794.065 752.163L797.683 751.487L799.818 751.04C800.155 752.018 800.445 753.032 800.746 754.057C801.363 756.482 801.815 758.946 802.097 761.431C802.386 764.05 802.579 766.669 802.627 769.337C802.869 778.738 802 788.442 802.772 797.614C802.724 798.471 802.772 799.243 802.869 799.979Z" fill="#FFB26C"/>
<path fill-rule="evenodd" clip-rule="evenodd" d="M852.986 740.999C850.983 743.438 848.352 745.283 845.377 746.333C833.8 749.238 819.438 742.753 802.29 726.878L814.095 765.39H813.903C809.151 765.631 805.666 763.64 801.976 761.516C799.166 759.649 796.121 758.163 792.92 757.099C789.964 756.315 786.883 756.118 783.851 756.519C782.246 756.725 780.658 757.048 779.1 757.485C779.1 757.485 779.004 757.485 778.955 757.485C775.137 732.116 776.745 714.073 783.779 703.356C789.519 695.117 814.317 699.848 858.171 717.549C858.798 728.182 857.11 736.002 852.986 740.999Z" fill="url(#paint26_linear_0_3)"/>
<path fill-rule="evenodd" clip-rule="evenodd" d="M807.716 807.197C807.813 811.71 793.474 822.379 783.827 825.3C782.063 825.949 780.169 826.165 778.304 825.928C774.276 821.1 791.629 811.083 792.305 801.09H792.498C793.695 801.436 794.947 801.551 796.188 801.428C796.514 801.391 796.837 801.327 797.153 801.235H797.297C799.386 800.584 801.249 799.358 802.676 797.698L802.868 797.505C804.293 798.706 805.457 800.184 806.291 801.851C807.124 803.517 807.609 805.336 807.716 807.197Z" fill="url(#paint27_linear_0_3)"/>
<path opacity="0.1" fill-rule="evenodd" clip-rule="evenodd" d="M852.986 740.999C850.983 743.438 848.352 745.283 845.377 746.333C833.8 749.238 819.438 742.753 802.29 726.878L814.095 765.39H813.903L814.385 765.825C810.782 767.988 806.703 769.231 802.507 769.445C802.748 778.847 801.88 788.55 802.651 797.723L802.844 797.53C804.26 798.728 805.417 800.202 806.247 801.861C807.076 803.521 807.559 805.332 807.668 807.185C807.765 811.698 793.426 822.367 783.779 825.288C785.63 822.892 787.602 820.592 789.688 818.397C793.772 813.506 796.382 807.554 797.213 801.235C798.081 794.585 797.555 787.828 795.669 781.393C794.403 777.085 792.655 772.861 792.052 768.395C792.052 768.057 792.052 767.671 791.955 767.333C791.808 763.89 792.154 760.444 792.98 757.099C793.318 755.494 793.704 753.852 794.041 752.271C794.138 751.933 794.186 751.595 794.282 751.257C795.295 746.695 795.983 742.182 794.91 737.668C794.186 734.614 792.679 731.802 791.762 728.797C790.846 725.792 790.556 722.292 792.244 719.673C793.132 718.44 794.306 717.443 795.666 716.768C797.025 716.093 798.529 715.76 800.047 715.799C803.068 715.885 806.04 716.592 808.777 717.875C815.842 720.831 822.411 724.857 828.253 729.811C832.425 733.359 836.357 737.475 841.397 739.466C845.328 741.047 849.067 740.842 852.986 740.999Z" fill="black"/>
<path fill-rule="evenodd" clip-rule="evenodd" d="M848.621 775.576L847.945 780.187L847.559 782.757L846.643 788.864L845.907 793.909C845.811 793.909 845.763 793.909 845.666 793.909C842.643 793.222 839.811 791.866 837.382 789.938C834.351 787.493 832.01 784.298 830.592 780.669C829.692 778.423 829.06 776.077 828.711 773.681C828.014 769.58 828.329 765.371 829.628 761.419L830.206 761.854L843.93 772.137L847.318 774.611L848.621 775.576Z" fill="url(#paint28_linear_0_3)"/>
<path fill-rule="evenodd" clip-rule="evenodd" d="M847.752 788.755L846.643 788.9C846.288 788.956 845.929 788.988 845.57 788.997C842.905 789.395 840.143 789.685 837.382 789.926C825 790.935 812.567 791.177 800.155 790.65C799.818 790.65 799.432 790.65 799.046 790.65V786.281V785.074V780.247L801.325 779.957C810.381 778.593 819.643 775.588 828.856 773.693C831.466 773.153 834.102 772.751 836.754 772.487C839.184 772.207 841.629 772.094 844.074 772.149C845.184 772.149 846.245 772.245 847.366 772.342L847.463 774.623L847.608 780.247L847.704 782.818L847.752 788.755Z" fill="#FFB26C"/>
<path fill-rule="evenodd" clip-rule="evenodd" d="M897.231 777.085C888.415 786.39 871.159 792.026 845.666 793.981V793.836C845.757 792.203 845.725 790.565 845.57 788.936C845.28 785.849 844.338 782.859 842.808 780.162C841.099 777.309 839.014 774.699 836.61 772.402C833.752 769.349 831.075 766.368 830.206 761.781C830.206 761.637 830.206 761.492 830.11 761.347L870.291 764.256C850.996 751.149 841.349 738.645 841.602 726.613C842.374 720.156 846.197 715.208 853.034 711.816C857.378 709.777 861.998 708.386 866.745 707.689C893.894 746.518 904.056 769.65 897.231 777.085Z" fill="url(#paint29_linear_0_3)"/>
<path fill-rule="evenodd" clip-rule="evenodd" d="M799.094 785.038C799.036 785.438 799.004 785.841 798.998 786.245C799.019 787.796 799.434 789.316 800.203 790.662C800.203 790.662 800.203 790.759 800.3 790.807C790.761 793.716 784.888 812.929 779.317 810.021C777.87 806.714 778.883 800.124 780.969 793.667C783.586 785.569 787.843 777.761 790.906 777.133C792.734 776.836 794.603 776.91 796.401 777.352C798.199 777.794 799.891 778.594 801.373 779.704C801.373 779.8 801.277 779.849 801.228 779.945C800.1 781.436 799.366 783.188 799.094 785.038Z" fill="url(#paint30_linear_0_3)"/>
<path opacity="0.1" fill-rule="evenodd" clip-rule="evenodd" d="M897.231 777.085C888.415 786.39 871.159 792.026 845.666 793.981V793.836C842.642 793.15 839.811 791.793 837.382 789.866C825 790.875 812.567 791.117 800.155 790.59C800.155 790.59 800.155 790.686 800.252 790.735C790.713 793.643 784.84 812.857 779.269 809.948C777.822 806.642 778.835 800.052 780.921 793.595C785.081 789.974 789.543 786.462 794.922 785.4C796.246 785.126 797.597 784.997 798.949 785.014C798.958 785.004 798.97 784.996 798.982 784.99C798.994 784.984 799.008 784.981 799.022 784.981C799.035 784.981 799.049 784.984 799.061 784.99C799.074 784.996 799.085 785.004 799.094 785.014C802.145 784.918 805.196 785.207 808.247 785.014C812.66 784.676 816.833 783.119 821.15 782.105C824.259 781.394 827.414 780.906 830.592 780.645C834.62 780.307 838.732 780.211 842.808 780.211H847.945C858.654 780.211 869.217 780.018 878.865 775.649C880.433 775.055 881.844 774.11 882.989 772.885C885.606 769.783 884.93 765.125 883.761 761.238C880.943 751.938 876.206 743.332 869.857 735.978C864.128 729.377 856.772 723.366 853.709 714.918C853.331 713.94 853.103 712.911 853.034 711.865C857.378 709.825 861.998 708.435 866.745 707.737C893.894 746.534 904.056 769.65 897.231 777.085Z" fill="black"/>
<path fill-rule="evenodd" clip-rule="evenodd" d="M883.568 732.937C874.528 734.822 865.124 733.77 856.724 729.932C848.186 726.311 839.468 720.132 830.689 711.358C851.877 696.32 835.295 685.458 838.732 649.215C852.455 640.92 866.4 641.781 880.565 651.798C880.824 652.44 881.034 653.102 881.192 653.777C888.415 674.632 889.187 701.075 883.568 732.937Z" fill="url(#paint31_linear_0_3)"/>
<path opacity="0.1" fill-rule="evenodd" clip-rule="evenodd" d="M883.568 732.937C874.528 734.822 865.124 733.77 856.724 729.932C856.737 729.71 856.803 729.494 856.917 729.304C858.895 724.742 864.478 723.197 868.542 720.373C875.331 715.678 878.382 706.989 878.479 698.746C878.575 690.503 876.2 682.501 874.21 674.487C873.689 672.556 873.381 670.572 873.293 668.573C873.293 663.336 876.441 658.725 879.89 654.996C880.287 654.556 880.723 654.152 881.192 653.789C888.415 674.632 889.187 701.075 883.568 732.937Z" fill="black"/>
<path fill-rule="evenodd" clip-rule="evenodd" d="M815.217 722.075L836.236 718.84L798.515 694.509L781.078 699.156L815.217 722.075Z" fill="url(#paint32_linear_0_3)"/>
<path fill-rule="evenodd" clip-rule="evenodd" d="M781.138 699.832L815.217 722.377L809.489 684.637L778.316 665.653L781.138 699.832Z" fill="url(#paint33_linear_0_3)"/>
<path fill-rule="evenodd" clip-rule="evenodd" d="M794.91 686.665C794.949 686.927 794.913 687.195 794.807 687.437C794.7 687.68 794.527 687.887 794.307 688.035C794.087 688.183 793.83 688.266 793.565 688.273C793.3 688.28 793.039 688.212 792.811 688.077C792.204 687.768 791.689 687.303 791.319 686.731C790.948 686.159 790.735 685.499 790.701 684.818C790.662 684.555 790.699 684.287 790.808 684.044C790.916 683.801 791.091 683.595 791.312 683.448C791.533 683.301 791.792 683.22 792.057 683.215C792.323 683.21 792.584 683.28 792.811 683.418C793.418 683.724 793.932 684.186 794.3 684.757C794.669 685.327 794.879 685.986 794.91 686.665Z" fill="#F2F2F2"/>
<path fill-rule="evenodd" clip-rule="evenodd" d="M891.708 716.692C890.068 725.225 852.684 720.228 828.566 719.842V713.397C828.566 713.397 828.566 713.397 828.663 713.397L876.055 707.363C871.378 694.273 867.686 680.851 865.009 667.21C862.597 653.934 874.849 646.343 881.047 652.027C883.857 655.322 886.185 662.455 887.933 671.132C890.931 686.124 892.198 701.411 891.708 716.692Z" fill="#FFB26C"/>
<path fill-rule="evenodd" clip-rule="evenodd" d="M828.952 713.397L828.808 716.342L828.566 719.842V719.963C825.455 719.528 824.539 717.247 821.97 717.102L819.016 717.634L816.447 718.128C815.518 717.971 814.035 717.247 815.615 716.378C817.735 715.12 819.978 714.081 822.308 713.277C824.394 713.159 826.487 713.208 828.566 713.421C828.566 713.421 828.566 713.421 828.663 713.421L828.952 713.397Z" fill="#FFB26C"/>
<path fill-rule="evenodd" clip-rule="evenodd" d="M850.502 644.436C852.6 649.263 857.243 649.263 864.442 644.496C861.548 641.334 859.872 636.82 859.462 630.955L851.382 631.763C853.541 637.219 853.263 641.515 850.502 644.436Z" fill="#FFA45A"/>
<path fill-rule="evenodd" clip-rule="evenodd" d="M849.356 639.91C851.856 642.67 856.503 640.719 863.296 634.056L859.679 616.931L845.799 621.384C844.713 629.338 845.859 635.481 849.356 639.91Z" fill="#FFB26C"/>
<path fill-rule="evenodd" clip-rule="evenodd" d="M849.429 628.384C847.74 628.251 847.885 630.882 846.269 631.425C845.141 631.89 843.914 632.065 842.701 631.934C841.488 631.803 840.327 631.371 839.323 630.677C838.922 630.395 838.585 630.033 838.331 629.613C838.078 629.193 837.915 628.725 837.852 628.239C837.674 627.778 837.606 627.282 837.652 626.79C837.698 626.298 837.857 625.823 838.117 625.403C838.515 624.727 839.793 625.065 839.938 624.329C840.071 623.786 839.19 623.725 838.925 623.122C838.382 621.77 838.72 620.829 838.792 619.344C838.792 618.198 838.455 617.329 839.13 616.376C839.453 615.803 839.923 615.327 840.491 614.996C841.059 614.665 841.705 614.491 842.362 614.493C843.098 614.493 843.23 615.639 843.978 615.507C846.872 614.831 845.389 610.377 848.078 609.038C848.633 608.763 849.251 608.642 849.869 608.689C850.486 608.735 851.08 608.948 851.587 609.303C852.395 609.714 852.19 610.993 853.07 611.186C855.362 611.596 855.965 608.495 858.256 608.289C858.882 608.193 859.522 608.252 860.119 608.463C860.717 608.674 861.253 609.028 861.681 609.496C862.886 610.703 861.681 612.731 863.104 613.745C865.25 615.229 867.348 612.465 869.7 613.539C870.487 613.866 871.181 614.381 871.722 615.04C872.262 615.699 872.632 616.481 872.799 617.317C873.197 618.729 872.666 619.67 872.124 621.082C871.521 622.7 869.772 623.17 869.772 624.932C869.832 626.888 872.329 627.081 872.594 629.036C873.004 632.415 871.786 634.636 869.567 637.194C868.289 638.679 866.866 638.606 865.25 639.608C863.031 640.887 862.223 643.374 859.667 643.229C858.261 643.115 856.935 642.526 855.908 641.559C854.88 640.592 854.211 639.304 854.011 637.906C853.673 636.289 855.217 635.613 855.892 634.069C856.435 632.789 857.641 631.848 856.977 630.701C856.817 630.479 856.613 630.292 856.378 630.15C856.144 630.009 855.883 629.916 855.612 629.878C855.34 629.84 855.064 629.856 854.799 629.927C854.535 629.998 854.287 630.122 854.071 630.291C852.926 631.039 854.542 633.996 853.336 633.658C852.13 633.32 851.852 628.589 849.429 628.384Z" fill="black"/>
<path fill-rule="evenodd" clip-rule="evenodd" d="M778.521 656.155C777.508 653.463 777.641 649.155 775.422 647.199L766.462 641.515C764.979 640.163 763.363 642.794 764.979 644.146L770.032 648.587C769.09 651.057 768.856 653.74 769.356 656.336C769.688 657.252 770.225 658.08 770.925 658.758C771.625 659.436 772.47 659.944 773.396 660.246L778.521 656.155Z" fill="#FFB26C"/>
<path opacity="0.1" fill-rule="evenodd" clip-rule="evenodd" d="M891.708 716.692C890.067 725.225 852.684 720.228 828.566 719.842V719.963C825.455 719.528 824.539 717.247 821.97 717.102L819.016 717.633C819.419 717.366 819.858 717.155 820.318 717.006C822.143 716.484 824.042 716.271 825.937 716.378H828.759C840.529 716.475 852.262 716.523 864.032 716.571C869.664 716.571 875.669 716.475 880.131 713.083C883.749 710.308 885.654 705.758 886.329 701.196C887.004 696.634 886.619 692.072 886.619 687.461C886.522 682.429 886.522 676.792 887.74 671.844C887.74 671.603 887.885 671.361 887.933 671.12C890.932 686.116 892.199 701.407 891.708 716.692Z" fill="black"/>
<path fill-rule="evenodd" clip-rule="evenodd" d="M511.57 553.871C511.04 557.166 510.364 560.171 509.677 562.597C501.248 562.634 492.824 562.231 484.437 561.39L480.82 550.854L471.51 523.699C479.372 523.216 487.995 523.892 511.16 530.53C513.415 537.723 512.836 546.448 511.57 553.871Z" fill="#7E661C"/>
<path opacity="0.1" fill-rule="evenodd" clip-rule="evenodd" d="M555.139 486.442C553.403 528.357 550.195 552.99 543.37 557.648C539.342 560.062 527.175 562.403 509.677 562.548C501.248 562.586 492.824 562.183 484.437 561.341L480.82 550.805C482.095 550.35 483.447 550.154 484.799 550.226C487.705 550.371 490.467 551.433 493.24 552.266C499.238 553.675 505.407 554.215 511.558 553.871L515.827 553.726C521.061 553.533 526.535 553.231 530.949 550.419C533.919 548.306 536.322 545.491 537.943 542.224C547 525.497 544.286 504.002 554.223 487.757C554.609 487.226 554.898 486.78 555.139 486.442Z" fill="black"/>
<path fill-rule="evenodd" clip-rule="evenodd" d="M634.078 570.948C633.99 569.933 633.583 568.972 632.916 568.203C632.249 567.433 631.355 566.894 630.364 566.664C631.075 559.278 639.842 551.795 647.705 545.085C655.965 538.048 663.092 531.978 661.946 525.955C661.247 522.335 657.485 519.33 650.418 516.916L649.526 519.535C655.483 521.574 658.739 523.904 659.233 526.474C660.077 530.904 653.204 536.769 645.908 542.985C637.467 550.154 628.121 558.179 627.59 566.821C626.56 567.159 625.673 567.835 625.074 568.739C624.474 569.643 624.197 570.724 624.286 571.805L624.949 579.457C625.064 580.758 625.691 581.96 626.692 582.799C627.693 583.637 628.985 584.044 630.285 583.928C631.586 583.813 632.787 583.186 633.625 582.184C634.462 581.183 634.868 579.889 634.753 578.588L634.078 570.948Z" fill="#0081FF"/>
<path fill-rule="evenodd" clip-rule="evenodd" d="M492.625 820.304L474.404 820.4H465.625C464.226 817.926 466.011 816.043 467.422 814.148C468.186 813.277 468.673 812.197 468.821 811.047L469.701 802.261L470.183 797.023C471.643 795.369 473.041 794.609 474.404 794.742C475.063 794.837 475.693 795.073 476.252 795.433C476.812 795.794 477.288 796.27 477.648 796.83L477.793 801.488L478.034 811.336C478.044 811.777 478.108 812.215 478.227 812.64C479.686 817.974 488.501 815.597 492.625 820.304Z" fill="#FFC78F"/>
<path fill-rule="evenodd" clip-rule="evenodd" d="M498.824 823.514C491.383 824.788 483.813 825.145 476.285 824.576C472.415 824.326 468.574 823.741 464.805 822.826C464.541 821.267 464.589 819.672 464.948 818.132C465.306 816.593 465.967 815.14 466.891 813.859C467.057 813.988 467.235 814.101 467.422 814.197C468.25 814.864 469.206 815.355 470.23 815.639C471.254 815.923 472.326 815.995 473.379 815.85C475.337 815.388 477.07 814.252 478.275 812.64L478.854 811.916C482.978 820.448 500.56 813.762 498.824 823.514Z" fill="url(#paint34_linear_0_3)"/>
<path fill-rule="evenodd" clip-rule="evenodd" d="M493.494 667.56C492.77 676.684 491.745 685.796 490.491 694.92L479.927 800.028C479.29 800.593 478.59 801.083 477.841 801.488C476.515 802.234 475.041 802.679 473.524 802.792C472.229 802.924 470.922 802.759 469.701 802.309C468.219 801.8 466.886 800.934 465.818 799.786C466.554 753.611 456.376 729.063 462.285 694.147C459.668 666.98 447.259 638.075 454.483 612.55L494.615 604.886C495.575 625.78 495.2 646.714 493.494 667.56Z" fill="url(#paint35_linear_0_3)"/>
<path opacity="0.1" fill-rule="evenodd" clip-rule="evenodd" d="M498.824 823.514C491.383 824.788 483.813 825.145 476.285 824.576C476.045 824.22 475.836 823.844 475.658 823.453C475.193 822.462 474.79 821.442 474.452 820.4C473.963 818.921 473.62 817.397 473.427 815.85C472.969 811.506 473.018 807.124 473.572 802.792C473.572 802.55 473.572 802.357 473.572 802.116C473.813 799.702 474.103 797.216 474.404 794.79C476.285 778.4 478.806 762.047 479.493 745.561C480.072 730.909 479.143 716.161 480.892 701.57C482.206 690.937 492.107 672.604 486.005 653.125C486.728 652.015 492.722 668.199 493.494 667.608C492.77 676.732 491.745 685.844 490.491 694.968L479.927 800.076C479.29 800.642 478.59 801.132 477.841 801.536L478.082 811.385C478.092 811.825 478.157 812.263 478.275 812.688L478.854 811.964C482.978 820.448 500.56 813.762 498.824 823.514Z" fill="black"/>
<path fill-rule="evenodd" clip-rule="evenodd" d="M451.335 817.298L435.574 807.16L428.845 802.84C429.086 799.979 431.607 799.448 433.837 798.628C434.924 798.305 435.898 797.681 436.647 796.829L441.784 790.385L445.318 785.871C446.687 785.408 448.169 785.408 449.538 785.871C450.744 786.498 451.432 787.814 451.576 789.793L448.272 795.224L444.064 802.031C443.856 802.392 443.674 802.767 443.521 803.154C441.833 808.379 450.407 811.191 451.335 817.298Z" fill="#FFC78F"/>
<path fill-rule="evenodd" clip-rule="evenodd" d="M454.868 823.26C447.807 820.193 441.149 816.269 435.043 811.578C432.168 809.389 429.478 806.967 427 804.336C427.593 802.875 428.48 801.552 429.607 800.449C430.734 799.347 432.075 798.488 433.548 797.928L433.837 798.664C434.404 800.346 435.511 801.793 436.985 802.779C437.97 803.344 439.069 803.677 440.202 803.755C441.334 803.832 442.469 803.651 443.521 803.226C443.853 803.149 444.18 803.048 444.498 802.924C443.328 812.157 461.561 816.14 454.868 823.26Z" fill="url(#paint36_linear_0_3)"/>
<path fill-rule="evenodd" clip-rule="evenodd" d="M518.456 713.011L452.324 795.369C450.965 795.558 449.583 795.493 448.248 795.176C446.568 794.849 445.012 794.064 443.75 792.907C442.919 792.214 442.241 791.355 441.76 790.385C441.225 789.469 440.862 788.462 440.687 787.416C466.373 749.145 471.269 723.004 495.218 696.899C499.451 676.515 467.325 640.006 487.295 622.651L506.915 619.936L521.169 617.993C532.119 663.734 531.214 695.407 518.456 713.011Z" fill="url(#paint37_linear_0_3)"/>
<path opacity="0.1" fill-rule="evenodd" clip-rule="evenodd" d="M444.064 802.031C443.856 802.392 443.674 802.767 443.521 803.154C443.853 803.077 444.18 802.976 444.498 802.852C443.292 812.121 461.561 816.128 454.868 823.224C447.807 820.156 441.149 816.233 435.043 811.541C435.05 810.054 435.228 808.571 435.574 807.124C435.868 805.638 436.325 804.189 436.937 802.804C436.937 802.804 436.937 802.804 436.937 802.707C438.538 799.539 440.54 796.59 442.894 793.933C443.183 793.595 443.473 793.209 443.726 792.871C445.655 790.457 447.597 788.164 449.49 785.786C467.426 763.668 485.326 741.542 503.189 719.408C506.915 714.797 510.75 710.042 512.257 704.321C513.047 700.623 513.355 696.838 513.174 693.061L512.74 646.789C512.74 637.134 509.629 630.786 507.217 621.951C506.985 621.301 506.867 620.615 506.867 619.924L521.121 617.981C532.071 663.722 531.166 695.395 518.408 712.999L452.324 795.369C450.965 795.558 449.583 795.493 448.248 795.176L444.064 802.031Z" fill="black"/>
<path fill-rule="evenodd" clip-rule="evenodd" d="M550.268 464.32C552.076 460.325 564.389 460.928 564.509 463.945C564.63 466.963 549.882 472.671 549.749 468.508C549.616 464.344 550.268 464.32 550.268 464.32Z" fill="#FFC78F"/>
<path opacity="0.1" fill-rule="evenodd" clip-rule="evenodd" d="M615.386 552.314C587.711 585.25 569.683 603.341 561.302 602.858C556.647 602.279 545.625 596.691 531.685 586.071C528.441 583.596 525.052 580.833 521.555 577.828C522.125 594.556 523.646 611.238 526.113 627.793C519.476 632.033 512.119 635.023 504.407 636.615C504.099 633.976 504.233 631.304 504.805 628.71C506.011 623.472 508.338 618.669 510.183 613.672C514.152 602.604 515.316 590.724 513.572 579.095C512.619 572.541 510.654 566.036 511.413 559.447C512.145 560.7 512.95 561.909 513.825 563.067C516.031 566.15 518.566 568.983 521.386 571.515C525.911 575.591 530.75 579.304 535.857 582.619C537.497 583.826 539.149 584.852 540.801 585.962C544.769 588.581 548.941 591.296 553.692 591.888C561.591 592.902 568.959 587.905 575.061 582.764C586.107 573.447 596.14 562.922 608.018 554.631C611.166 552.507 613.493 551.735 615.386 552.314Z" fill="black"/>
<path opacity="0.1" fill-rule="evenodd" clip-rule="evenodd" d="M699.8 535.502C699.891 534.48 699.599 533.46 698.98 532.642L656.87 479.864L609.839 481.071C609.839 479.442 606.776 478.657 603.303 478.657C600.035 478.657 596.562 479.478 595.742 481.313L589.194 481.518C588.402 481.549 587.633 481.797 586.971 482.236C586.31 482.675 585.782 483.287 585.445 484.005C585.108 484.724 584.974 485.522 585.059 486.311C585.144 487.1 585.444 487.851 585.926 488.482L591.449 495.433L575.097 550.262C572.668 547.498 569.924 545.027 566.921 542.9C566.921 542.846 566.9 542.794 566.861 542.755C566.823 542.717 566.771 542.695 566.716 542.695C561.205 540.474 555.435 538.961 549.544 538.193C547.625 536.074 546.368 533.439 545.926 530.614C546.654 530.713 547.395 530.657 548.1 530.449C548.804 530.241 549.457 529.886 550.014 529.407C551.437 527.766 551.847 523.88 551.437 517.749C549.844 520.599 548.411 523.537 547.144 526.547C540.374 543.412 537.577 561.612 538.968 579.734C539.64 588.65 541.146 597.483 543.466 606.117C546.162 617.045 550.579 627.474 556.55 637.013C560.452 642.991 565.127 648.425 570.454 653.174C570.249 650.917 569.634 648.672 569.249 646.222C570.095 645.818 570.902 645.337 571.66 644.786C570.454 637.834 569.61 630.303 568.79 622.277C568.175 615.941 567.765 609.4 567.367 602.436C567.162 600.022 567.162 597.524 566.957 594.869C568.585 596.305 570.225 597.729 571.865 598.96C573.698 600.396 575.338 601.82 577.171 603.257C582.258 607.231 587.658 610.787 593.318 613.889C593.523 614.095 593.523 614.3 593.728 614.3C599.661 617.776 604.16 619.622 606.812 620.032C612.131 620.238 621.525 612.876 634.548 598.96C642.121 591.188 650.695 581.159 660.716 569.5C661.252 569.005 661.733 568.455 662.151 567.859C672.775 569.065 676.622 554.981 673.005 551.288C672.284 550.374 671.278 549.728 670.147 549.454L674.645 540.245L695.7 539.629C696.286 539.65 696.869 539.532 697.402 539.285C697.934 539.037 698.4 538.667 698.763 538.205C702.236 539.835 704.286 541.681 704.684 543.516C705.504 548.017 698.558 553.75 691.419 560.086C682.977 567.255 673.632 575.233 673.017 583.826C671.997 584.214 671.129 584.919 670.541 585.839C669.953 586.758 669.675 587.842 669.749 588.931L670.364 596.51C670.497 597.792 671.126 598.971 672.118 599.794C673.11 600.616 674.384 601.017 675.668 600.909C676.951 600.802 678.141 600.195 678.983 599.219C679.824 598.243 680.25 596.976 680.168 595.689L679.565 588.122C679.481 587.108 679.078 586.147 678.416 585.375C677.753 584.604 676.864 584.061 675.875 583.826C676.49 576.259 685.281 568.884 693.252 562.102C701.428 555.15 708.591 549.007 707.361 543.081C706.77 540.209 704.358 537.554 699.8 535.502ZM608.838 593.807C604.943 588.291 601.265 583.174 597.985 578.672C595.947 575.812 593.897 573.145 591.859 570.49C594.717 565.167 596.562 555.355 597.985 541.645C608.838 549.212 637.852 562.717 648.887 564.962L608.838 593.807ZM556.297 516.687C557.816 516.365 559.222 515.645 560.372 514.602C561.522 513.559 562.376 512.229 562.845 510.749C564.473 506.657 564.473 502.976 562.64 499.5C559.167 504.618 555.477 510.133 552.209 516.071C553.44 516.801 554.906 517.021 556.297 516.687Z" fill="black"/>
<path fill-rule="evenodd" clip-rule="evenodd" d="M488.2 520.488C491.576 523.735 497.642 524.193 504.19 521.224C500.813 518.05 499.439 513.078 500.126 506.319L490.997 508.625C491.383 510.688 491.333 512.809 490.851 514.852C490.369 516.895 489.466 518.815 488.2 520.488Z" fill="#FFC78F"/>
<path fill-rule="evenodd" clip-rule="evenodd" d="M488.2 509.566C496.44 513.854 501.887 514.751 504.54 512.257C506.819 509.771 506.602 501.287 503.852 486.913L489.514 490.533L488.2 509.566Z" fill="#FFC78F"/>
<path fill-rule="evenodd" clip-rule="evenodd" d="M498.751 496.459C503.442 495.252 506.059 500.804 510.738 499.694C512.293 499.383 513.735 498.659 514.913 497.597C516.091 496.535 516.961 495.174 517.431 493.659C519.36 488.349 519.083 483.654 515.501 479.382C513.295 476.835 510.328 475.387 507.229 476.835C504.745 478.042 506.879 482.001 504.467 483.388C501.646 484.97 499.161 482.483 496.267 482.182C492.818 481.494 489.032 482.664 489.442 487.914C485.378 490.883 485.306 490.738 484.063 493.563C483.304 495.288 483.581 496.532 483.786 498.39C484.062 499.763 484.408 501.12 484.823 502.457C485.028 503.423 484.968 504.038 485.101 505.004C485.083 505.834 485.248 506.658 485.583 507.418C486.441 509.278 487.933 510.771 489.791 511.63C491.854 512.668 493.409 513.211 495.712 512.523C496.918 512.185 497.16 511.316 498.124 510.531C498.812 509.831 499.632 509.699 499.776 508.733C500.331 505.631 494.531 503.906 496.677 501.287C497.883 499.971 499.776 504.316 500.536 504.111C501.296 503.906 500.391 501.769 499.909 500.321C499.427 498.873 497.847 498.595 498.052 497.147C498.095 496.98 498.183 496.827 498.306 496.706C498.43 496.585 498.583 496.5 498.751 496.459Z" fill="black"/>
<path fill-rule="evenodd" clip-rule="evenodd" d="M616.701 550.757C616.255 551.3 615.821 551.783 615.386 552.314C587.711 585.25 569.683 603.341 561.302 602.858C556.647 602.279 545.625 596.691 531.685 586.071C532.891 585.105 534.301 583.995 535.809 582.727C542.007 577.441 549.472 569.778 552.523 561.583C555.923 566.193 559.505 571.238 563.376 576.669L612.034 541.79L616.701 550.757Z" fill="#FFC78F"/>
<path fill-rule="evenodd" clip-rule="evenodd" d="M555.284 482.568C555.284 483.871 555.188 485.187 555.139 486.442C553.403 528.357 550.195 552.99 543.37 557.648C539.342 560.062 527.175 562.403 509.677 562.548C510.316 560.135 511.04 557.117 511.57 553.822C512.836 546.4 513.415 537.614 511.184 530.433C516.659 531.99 522.58 533.788 528.923 535.731L546.083 478.344L555.284 482.568Z" fill="#FFC78F"/>
<path fill-rule="evenodd" clip-rule="evenodd" d="M526.113 627.793C519.476 632.033 512.119 635.023 504.407 636.615C485.993 640.405 465.444 636.47 450.322 621.722C451.721 577.55 458.209 529.274 471.534 523.65C489.623 518.823 506.288 519.571 521.362 525.69C520.88 541.935 520.831 557.262 521.362 571.552C521.362 573.628 521.459 575.715 521.555 577.755C522.122 594.508 523.644 611.214 526.113 627.793Z" fill="url(#paint38_linear_0_3)"/>
<path fill-rule="evenodd" clip-rule="evenodd" d="M552.523 561.583C549.472 569.778 542.007 577.441 535.809 582.727C534.301 583.995 532.951 585.141 531.685 586.071C528.441 583.596 525.052 580.833 521.555 577.828C518.601 575.257 515.598 572.493 512.499 569.584L513.825 563.128L521.386 525.714C527.91 530.192 538.329 542.176 552.523 561.583Z" fill="url(#paint39_linear_0_3)"/>
<path fill-rule="evenodd" clip-rule="evenodd" d="M611.998 541.79C612.191 534.633 616.701 530.276 616.701 534.959C616.701 538.58 615.76 541.331 618.739 537.3C621.717 533.269 623.743 530.349 627.506 534.114C631.268 537.88 627.301 551.952 616.653 550.757C606.005 549.562 611.998 541.79 611.998 541.79Z" fill="#FFC78F"/>
<path fill-rule="evenodd" clip-rule="evenodd" d="M635.706 508.938L619.667 543.335C619.182 544.395 618.492 545.349 617.636 546.141C616.78 546.933 615.776 547.547 614.682 547.949C613.588 548.351 612.425 548.532 611.261 548.481C610.096 548.431 608.953 548.15 607.898 547.655C605.57 552.652 546.397 525.05 548.664 520.005C547.603 519.52 546.648 518.828 545.856 517.971C545.064 517.113 544.45 516.107 544.05 515.01C543.649 513.913 543.47 512.748 543.523 511.581C543.576 510.415 543.86 509.27 544.359 508.214L547.361 501.769L560.349 473.758L623.647 503.29L635.706 508.938Z" fill="url(#paint40_linear_0_3)"/>
<path fill-rule="evenodd" clip-rule="evenodd" d="M582.694 524.326L540.56 471.44C540.065 470.815 539.754 470.065 539.661 469.273C539.568 468.481 539.697 467.679 540.033 466.956C540.37 466.233 540.901 465.618 541.567 465.181C542.233 464.743 543.007 464.499 543.804 464.477L611.335 462.751L653.469 515.637C653.965 516.259 654.277 517.008 654.371 517.799C654.465 518.59 654.337 519.391 654.001 520.113C653.666 520.835 653.136 521.449 652.471 521.886C651.806 522.323 651.032 522.566 650.237 522.588L582.694 524.326Z" fill="url(#paint41_linear_0_3)"/>
</g>
<circle cx="928" cy="73" r="5" fill="#002B5C"/>
<circle opacity="0.8" cx="18.5" cy="1440.5" r="515.5" stroke="url(#paint42_linear_0_3)" stroke-width="100"/>
</g>
<defs>
<linearGradient id="paint0_linear_0_3" x1="53.5" y1="267" x2="216" y2="326" gradientUnits="userSpaceOnUse">
<stop stop-color="white"/>
<stop offset="1" stop-color="white" stop-opacity="0"/>
</linearGradient>
<linearGradient id="paint1_linear_0_3" x1="668.193" y1="611.97" x2="569.499" y2="384.072" gradientUnits="userSpaceOnUse">
<stop stop-color="#D1D646"/>
<stop offset="1" stop-color="#D3D398"/>
</linearGradient>
<linearGradient id="paint2_linear_0_3" x1="497.654" y1="519.873" x2="733.059" y2="519.873" gradientUnits="userSpaceOnUse">
<stop stop-color="#4AADFF"/>
<stop offset="1" stop-color="#D7EFFF"/>
</linearGradient>
<linearGradient id="paint3_linear_0_3" x1="607.801" y1="421.113" x2="730.731" y2="421.113" gradientUnits="userSpaceOnUse">
<stop stop-color="#4AADFF"/>
<stop offset="1" stop-color="#D7EFFF"/>
</linearGradient>
<linearGradient id="paint4_linear_0_3" x1="511.076" y1="478.682" x2="582.441" y2="478.682" gradientUnits="userSpaceOnUse">
<stop stop-color="#4AADFF"/>
<stop offset="1" stop-color="#D7EFFF"/>
</linearGradient>
<linearGradient id="paint5_linear_0_3" x1="698.377" y1="503.423" x2="733.059" y2="503.423" gradientUnits="userSpaceOnUse">
<stop stop-color="#4AADFF"/>
<stop offset="1" stop-color="#D7EFFF"/>
</linearGradient>
<linearGradient id="paint6_linear_0_3" x1="536.882" y1="389.227" x2="588.832" y2="389.227" gradientUnits="userSpaceOnUse">
<stop stop-color="#4AADFF"/>
<stop offset="1" stop-color="#D7EFFF"/>
</linearGradient>
<linearGradient id="paint7_linear_0_3" x1="903.264" y1="787.793" x2="800.288" y2="495.706" gradientUnits="userSpaceOnUse">
<stop stop-color="#191919"/>
<stop offset="1" stop-color="#6D6D6D"/>
</linearGradient>
<linearGradient id="paint8_linear_0_3" x1="877.538" y1="569.09" x2="860.737" y2="470.6" gradientUnits="userSpaceOnUse">
<stop stop-color="#191919"/>
<stop offset="1" stop-color="#353535"/>
</linearGradient>
<linearGradient id="paint9_linear_0_3" x1="1004.68" y1="751.378" x2="902.69" y2="462.103" gradientUnits="userSpaceOnUse">
<stop stop-color="#191919"/>
<stop offset="1" stop-color="#6D6D6D"/>
</linearGradient>
<linearGradient id="paint10_linear_0_3" x1="983.2" y1="550.793" x2="966.749" y2="454.355" gradientUnits="userSpaceOnUse">
<stop stop-color="#191919"/>
<stop offset="1" stop-color="#353535"/>
</linearGradient>
<linearGradient id="paint11_linear_0_3" x1="803.884" y1="552.079" x2="840.001" y2="552.079" gradientUnits="userSpaceOnUse">
<stop stop-color="#0081FF"/>
<stop offset="1" stop-color="#A6D7FF"/>
</linearGradient>
<linearGradient id="paint12_linear_0_3" x1="788.25" y1="616.303" x2="824.367" y2="616.303" gradientUnits="userSpaceOnUse">
<stop stop-color="#0081FF"/>
<stop offset="1" stop-color="#A6D7FF"/>
</linearGradient>
<linearGradient id="paint13_linear_0_3" x1="858.003" y1="601.014" x2="894.12" y2="601.014" gradientUnits="userSpaceOnUse">
<stop stop-color="#0081FF"/>
<stop offset="1" stop-color="#A6D7FF"/>
</linearGradient>
<linearGradient id="paint14_linear_0_3" x1="784.75" y1="646.521" x2="817.78" y2="646.521" gradientUnits="userSpaceOnUse">
<stop stop-color="#4AADFF"/>
<stop offset="1" stop-color="#D7EFFF"/>
</linearGradient>
<linearGradient id="paint15_linear_0_3" x1="780.875" y1="671.735" x2="883.678" y2="671.735" gradientUnits="userSpaceOnUse">
<stop stop-color="#4AADFF"/>
<stop offset="1" stop-color="#D7EFFF"/>
</linearGradient>
<linearGradient id="paint16_linear_0_3" x1="820.8" y1="591.912" x2="885.485" y2="591.912" gradientUnits="userSpaceOnUse">
<stop stop-color="#4AADFF"/>
<stop offset="1" stop-color="#D7EFFF"/>
</linearGradient>
<linearGradient id="paint17_linear_0_3" x1="926.637" y1="585.054" x2="955.531" y2="585.054" gradientUnits="userSpaceOnUse">
<stop stop-color="#4AADFF"/>
<stop offset="1" stop-color="#D7EFFF"/>
</linearGradient>
<linearGradient id="paint18_linear_0_3" x1="923.734" y1="597.622" x2="952.628" y2="597.622" gradientUnits="userSpaceOnUse">
<stop stop-color="#4AADFF"/>
<stop offset="1" stop-color="#D7EFFF"/>
</linearGradient>
<linearGradient id="paint19_linear_0_3" x1="920.822" y1="616.974" x2="1008.31" y2="616.974" gradientUnits="userSpaceOnUse">
<stop stop-color="#4AADFF"/>
<stop offset="1" stop-color="#D7EFFF"/>
</linearGradient>
<linearGradient id="paint20_linear_0_3" x1="917.919" y1="629.542" x2="1005.41" y2="629.542" gradientUnits="userSpaceOnUse">
<stop stop-color="#4AADFF"/>
<stop offset="1" stop-color="#D7EFFF"/>
</linearGradient>
<linearGradient id="paint21_linear_0_3" x1="906.345" y1="663.081" x2="1001.48" y2="663.081" gradientUnits="userSpaceOnUse">
<stop stop-color="#0081FF"/>
<stop offset="1" stop-color="#A6D7FF"/>
</linearGradient>
<linearGradient id="paint22_linear_0_3" x1="912.895" y1="349.581" x2="961.404" y2="423.104" gradientUnits="userSpaceOnUse">
<stop stop-color="#4AADFF"/>
<stop offset="1" stop-color="#D7EFFF"/>
</linearGradient>
<linearGradient id="paint23_linear_0_3" x1="891.611" y1="363.617" x2="940.131" y2="437.14" gradientUnits="userSpaceOnUse">
<stop stop-color="#4AADFF"/>
<stop offset="1" stop-color="#D7EFFF"/>
</linearGradient>
<linearGradient id="paint24_linear_0_3" x1="904.309" y1="359.586" x2="947.893" y2="428.383" gradientUnits="userSpaceOnUse">
<stop stop-color="#0081FF"/>
<stop offset="1" stop-color="#A6D7FF"/>
</linearGradient>
<linearGradient id="paint25_linear_0_3" x1="778.98" y1="759.995" x2="814.409" y2="759.995" gradientUnits="userSpaceOnUse">
<stop stop-color="#C4D1D6"/>
<stop offset="1" stop-color="#4D7485"/>
</linearGradient>
<linearGradient id="paint26_linear_0_3" x1="776.954" y1="732.418" x2="858.304" y2="732.418" gradientUnits="userSpaceOnUse">
<stop stop-color="#0D3445"/>
<stop offset="1" stop-color="#11455C"/>
</linearGradient>
<linearGradient id="paint27_linear_0_3" x1="777.701" y1="811.747" x2="807.716" y2="811.747" gradientUnits="userSpaceOnUse">
<stop stop-color="#0D3445"/>
<stop offset="1" stop-color="#11455C"/>
</linearGradient>
<linearGradient id="paint28_linear_0_3" x1="828.385" y1="777.64" x2="848.621" y2="777.64" gradientUnits="userSpaceOnUse">
<stop stop-color="#C4D1D6"/>
<stop offset="1" stop-color="#4D7485"/>
</linearGradient>
<linearGradient id="paint29_linear_0_3" x1="830.11" y1="750.859" x2="899.281" y2="750.859" gradientUnits="userSpaceOnUse">
<stop stop-color="#0D3445"/>
<stop offset="1" stop-color="#11455C"/>
</linearGradient>
<linearGradient id="paint30_linear_0_3" x1="778.594" y1="793.595" x2="801.325" y2="793.595" gradientUnits="userSpaceOnUse">
<stop stop-color="#0D3445"/>
<stop offset="1" stop-color="#11455C"/>
</linearGradient>
<linearGradient id="paint31_linear_0_3" x1="840.794" y1="652.474" x2="882.464" y2="734.092" gradientUnits="userSpaceOnUse">
<stop stop-color="#F78D8B"/>
<stop offset="1" stop-color="#F97068"/>
</linearGradient>
<linearGradient id="paint32_linear_0_3" x1="824.37" y1="697.587" x2="802.458" y2="713.465" gradientUnits="userSpaceOnUse">
<stop stop-color="#191919"/>
<stop offset="1" stop-color="#353535"/>
</linearGradient>
<linearGradient id="paint33_linear_0_3" x1="778.316" y1="693.966" x2="815.217" y2="693.966" gradientUnits="userSpaceOnUse">
<stop stop-color="#191919"/>
<stop offset="1" stop-color="#353535"/>
</linearGradient>
<linearGradient id="paint34_linear_0_3" x1="491.89" y1="785.581" x2="478.182" y2="833.803" gradientUnits="userSpaceOnUse">
<stop stop-color="#88A2AE"/>
<stop offset="1" stop-color="#09232E"/>
</linearGradient>
<linearGradient id="paint35_linear_0_3" x1="452.252" y1="703.875" x2="495.134" y2="703.875" gradientUnits="userSpaceOnUse">
<stop stop-color="#88A2AE"/>
<stop offset="1" stop-color="#09232E"/>
</linearGradient>
<linearGradient id="paint36_linear_0_3" x1="452.481" y1="774.381" x2="438.773" y2="822.591" gradientUnits="userSpaceOnUse">
<stop stop-color="#88A2AE"/>
<stop offset="1" stop-color="#09232E"/>
</linearGradient>
<linearGradient id="paint37_linear_0_3" x1="440.711" y1="706.735" x2="528.754" y2="706.735" gradientUnits="userSpaceOnUse">
<stop stop-color="#88A2AE"/>
<stop offset="1" stop-color="#09232E"/>
</linearGradient>
<linearGradient id="paint38_linear_0_3" x1="534.965" y1="631.498" x2="457.146" y2="540.042" gradientUnits="userSpaceOnUse">
<stop stop-color="#0081FF"/>
<stop offset="1" stop-color="#A6D7FF"/>
</linearGradient>
<linearGradient id="paint39_linear_0_3" x1="566.499" y1="604.669" x2="488.669" y2="513.213" gradientUnits="userSpaceOnUse">
<stop stop-color="#0081FF"/>
<stop offset="1" stop-color="#A6D7FF"/>
</linearGradient>
<linearGradient id="paint40_linear_0_3" x1="576.617" y1="537.059" x2="609.703" y2="466.742" gradientUnits="userSpaceOnUse">
<stop stop-color="#0081FF"/>
<stop offset="1" stop-color="#0062B2"/>
</linearGradient>
<linearGradient id="paint41_linear_0_3" x1="539.619" y1="493.538" x2="654.434" y2="493.538" gradientUnits="userSpaceOnUse">
<stop stop-color="#191919"/>
<stop offset="1" stop-color="#353535"/>
</linearGradient>
<linearGradient id="paint42_linear_0_3" x1="584" y1="1300.2" x2="-61.6721" y2="1985.24" gradientUnits="userSpaceOnUse">
<stop stop-color="#F6F7F9"/>
<stop offset="1" stop-color="#E4E5EB"/>
</linearGradient>
<clipPath id="clip0_0_3">
<rect width="1440" height="1024" fill="white"/>
</clipPath>
<clipPath id="clip1_0_3">
<rect width="629" height="520" fill="white" transform="translate(427 306)"/>
</clipPath>
</defs>
</svg>
